<?xml version="1.0" encoding="UTF-8" standalone="no"?>
<!DOCTYPE svg PUBLIC "-//W3C//DTD SVG 1.1//EN"
 "http://www.w3.org/Graphics/SVG/1.1/DTD/svg11.dtd">
<!-- Generated by graphviz version 2.44.1 (20200629.0846)
 -->
<!-- Pages: 1 -->
<svg width="878pt" height="476pt"
 viewBox="0.00 0.00 878.25 476.00" xmlns="http://www.w3.org/2000/svg" xmlns:xlink="http://www.w3.org/1999/xlink">
<g id="graph0" class="graph" transform="scale(1 1) rotate(0) translate(4 472)">
<polygon fill="white" stroke="transparent" points="-4,4 -4,-472 874.25,-472 874.25,4 -4,4"/>
<!-- [root] aws_autoscaling_group.example (expand) -->
<g id="node1" class="node">
<title>[root] aws_autoscaling_group.example (expand)</title>
<polygon fill="none" stroke="black" points="564.48,-324 370.48,-324 370.48,-288 564.48,-288 564.48,-324"/>
<text text-anchor="middle" x="467.48" y="-302.3" font-family="Times,serif" font-size="14.00">aws_autoscaling_group.example</text>
</g>
<!-- [root] aws_elb.example (expand) -->
<g id="node2" class="node">
<title>[root] aws_elb.example (expand)</title>
<polygon fill="none" stroke="black" points="682.98,-180 571.98,-180 571.98,-144 682.98,-144 682.98,-180"/>
<text text-anchor="middle" x="627.48" y="-158.3" font-family="Times,serif" font-size="14.00">aws_elb.example</text>
</g>
<!-- [root] aws_autoscaling_group.example (expand)&#45;&gt;[root] aws_elb.example (expand) -->
<g id="edge1" class="edge">
<title>[root] aws_autoscaling_group.example (expand)&#45;&gt;[root] aws_elb.example (expand)</title>
<path fill="none" stroke="black" d="M522.41,-287.99C542.79,-279.63 564.94,-267.86 581.48,-252 599.44,-234.78 611.69,-209.01 619.01,-189.63"/>
<polygon fill="black" stroke="black" points="622.32,-190.74 622.39,-180.15 615.73,-188.39 622.32,-190.74"/>
</g>
<!-- [root] aws_launch_configuration.example (expand) -->
<g id="node3" class="node">
<title>[root] aws_launch_configuration.example (expand)</title>
<polygon fill="none" stroke="black" points="571.98,-252 362.98,-252 362.98,-216 571.98,-216 571.98,-252"/>
<text text-anchor="middle" x="467.48" y="-230.3" font-family="Times,serif" font-size="14.00">aws_launch_configuration.example</text>
</g>
<!-- [root] aws_autoscaling_group.example (expand)&#45;&gt;[root] aws_launch_configuration.example (expand) -->
<g id="edge2" class="edge">
<title>[root] aws_autoscaling_group.example (expand)&#45;&gt;[root] aws_launch_configuration.example (expand)</title>
<path fill="none" stroke="black" d="M467.48,-287.7C467.48,-279.98 467.48,-270.71 467.48,-262.11"/>
<polygon fill="black" stroke="black" points="470.98,-262.1 467.48,-252.1 463.98,-262.1 470.98,-262.1"/>
</g>
<!-- [root] aws_security_group.elb (expand) -->
<g id="node4" class="node">
<title>[root] aws_security_group.elb (expand)</title>
<polygon fill="none" stroke="black" points="540.48,-108 394.48,-108 394.48,-72 540.48,-72 540.48,-108"/>
<text text-anchor="middle" x="467.48" y="-86.3" font-family="Times,serif" font-size="14.00">aws_security_group.elb</text>
</g>
<!-- [root] aws_elb.example (expand)&#45;&gt;[root] aws_security_group.elb (expand) -->
<g id="edge3" class="edge">
<title>[root] aws_elb.example (expand)&#45;&gt;[root] aws_security_group.elb (expand)</title>
<path fill="none" stroke="black" d="M588.34,-143.88C566.47,-134.31 539.02,-122.3 515.82,-112.15"/>
<polygon fill="black" stroke="black" points="517.06,-108.87 506.49,-108.07 514.25,-115.28 517.06,-108.87"/>
</g>
<!-- [root] data.aws_availability_zones.all (expand) -->
<g id="node6" class="node">
<title>[root] data.aws_availability_zones.all (expand)</title>
<polygon fill="none" stroke="black" points="860.48,-108 674.48,-108 674.48,-72 860.48,-72 860.48,-108"/>
<text text-anchor="middle" x="767.48" y="-86.3" font-family="Times,serif" font-size="14.00">data.aws_availability_zones.all</text>
</g>
<!-- [root] aws_elb.example (expand)&#45;&gt;[root] data.aws_availability_zones.all (expand) -->
<g id="edge4" class="edge">
<title>[root] aws_elb.example (expand)&#45;&gt;[root] data.aws_availability_zones.all (expand)</title>
<path fill="none" stroke="black" d="M661.73,-143.88C680.54,-134.47 704.06,-122.71 724.15,-112.67"/>
<polygon fill="black" stroke="black" points="725.72,-115.79 733.1,-108.19 722.59,-109.53 725.72,-115.79"/>
</g>
<!-- [root] var.server_port -->
<g id="node9" class="node">
<title>[root] var.server_port</title>
<polygon fill="none" stroke="black" points="650.48,-108 558.48,-108 558.48,-72 656.48,-72 656.48,-102 650.48,-108"/>
<polyline fill="none" stroke="black" points="650.48,-108 650.48,-102 "/>
<polyline fill="none" stroke="black" points="656.48,-102 650.48,-102 "/>
<text text-anchor="middle" x="607.48" y="-86.3" font-family="Times,serif" font-size="14.00">var.server_port</text>
</g>
<!-- [root] aws_elb.example (expand)&#45;&gt;[root] var.server_port -->
<g id="edge5" class="edge">
<title>[root] aws_elb.example (expand)&#45;&gt;[root] var.server_port</title>
<path fill="none" stroke="black" d="M622.54,-143.7C620.31,-135.9 617.63,-126.51 615.15,-117.83"/>
<polygon fill="black" stroke="black" points="618.48,-116.76 612.37,-108.1 611.75,-118.68 618.48,-116.76"/>
</g>
<!-- [root] aws_security_group.instance (expand) -->
<g id="node5" class="node">
<title>[root] aws_security_group.instance (expand)</title>
<polygon fill="none" stroke="black" points="553.98,-180 380.98,-180 380.98,-144 553.98,-144 553.98,-180"/>
<text text-anchor="middle" x="467.48" y="-158.3" font-family="Times,serif" font-size="14.00">aws_security_group.instance</text>
</g>
<!-- [root] aws_launch_configuration.example (expand)&#45;&gt;[root] aws_security_group.instance (expand) -->
<g id="edge6" class="edge">
<title>[root] aws_launch_configuration.example (expand)&#45;&gt;[root] aws_security_group.instance (expand)</title>
<path fill="none" stroke="black" d="M467.48,-215.7C467.48,-207.98 467.48,-198.71 467.48,-190.11"/>
<polygon fill="black" stroke="black" points="470.98,-190.1 467.48,-180.1 463.98,-190.1 470.98,-190.1"/>
</g>
<!-- [root] provider[&quot;registry.terraform.io/hashicorp/aws&quot;] -->
<g id="node8" class="node">
<title>[root] provider[&quot;registry.terraform.io/hashicorp/aws&quot;]</title>
<polygon fill="none" stroke="black" points="617.48,-36 364.94,-18 617.48,0 870.02,-18 617.48,-36"/>
<text text-anchor="middle" x="617.48" y="-14.3" font-family="Times,serif" font-size="14.00">provider[&quot;registry.terraform.io/hashicorp/aws&quot;]</text>
</g>
<!-- [root] aws_security_group.elb (expand)&#45;&gt;[root] provider[&quot;registry.terraform.io/hashicorp/aws&quot;] -->
<g id="edge7" class="edge">
<title>[root] aws_security_group.elb (expand)&#45;&gt;[root] provider[&quot;registry.terraform.io/hashicorp/aws&quot;]</title>
<path fill="none" stroke="black" d="M504.17,-71.88C526.03,-61.68 553.82,-48.71 576.41,-38.17"/>
<polygon fill="black" stroke="black" points="578.16,-41.21 585.74,-33.81 575.2,-34.87 578.16,-41.21"/>
</g>
<!-- [root] aws_security_group.instance (expand)&#45;&gt;[root] aws_security_group.elb (expand) -->
<g id="edge8" class="edge">
<title>[root] aws_security_group.instance (expand)&#45;&gt;[root] aws_security_group.elb (expand)</title>
<path fill="none" stroke="black" d="M467.48,-143.7C467.48,-135.98 467.48,-126.71 467.48,-118.11"/>
<polygon fill="black" stroke="black" points="470.98,-118.1 467.48,-108.1 463.98,-118.1 470.98,-118.1"/>
</g>
<!-- [root] aws_security_group.instance (expand)&#45;&gt;[root] var.server_port -->
<g id="edge9" class="edge">
<title>[root] aws_security_group.instance (expand)&#45;&gt;[root] var.server_port</title>
<path fill="none" stroke="black" d="M501.73,-143.88C520.54,-134.47 544.06,-122.71 564.15,-112.67"/>
<polygon fill="black" stroke="black" points="565.72,-115.79 573.1,-108.19 562.59,-109.53 565.72,-115.79"/>
</g>
<!-- [root] data.aws_availability_zones.all (expand)&#45;&gt;[root] provider[&quot;registry.terraform.io/hashicorp/aws&quot;] -->
<g id="edge10" class="edge">
<title>[root] data.aws_availability_zones.all (expand)&#45;&gt;[root] provider[&quot;registry.terraform.io/hashicorp/aws&quot;]</title>
<path fill="none" stroke="black" d="M730.79,-71.88C708.93,-61.68 681.14,-48.71 658.55,-38.17"/>
<polygon fill="black" stroke="black" points="659.76,-34.87 649.22,-33.81 656.8,-41.21 659.76,-34.87"/>
</g>
<!-- [root] output.elb_dns_name -->
<g id="node7" class="node">
<title>[root] output.elb_dns_name</title>
<polygon fill="none" stroke="black" points="710.48,-324 582.48,-324 582.48,-288 716.48,-288 716.48,-318 710.48,-324"/>
<polyline fill="none" stroke="black" points="710.48,-324 710.48,-318 "/>
<polyline fill="none" stroke="black" points="716.48,-318 710.48,-318 "/>
<text text-anchor="middle" x="649.48" y="-302.3" font-family="Times,serif" font-size="14.00">output.elb_dns_name</text>
</g>
<!-- [root] output.elb_dns_name&#45;&gt;[root] aws_elb.example (expand) -->
<g id="edge13" class="edge">
<title>[root] output.elb_dns_name&#45;&gt;[root] aws_elb.example (expand)</title>
<path fill="none" stroke="black" d="M646.83,-287.87C643.08,-263.67 636.19,-219.21 631.72,-190.39"/>
<polygon fill="black" stroke="black" points="635.13,-189.54 630.14,-180.19 628.22,-190.61 635.13,-189.54"/>
</g>
<!-- [root] meta.count&#45;boundary (EachMode fixup) -->
<g id="node10" class="node">
<title>[root] meta.count&#45;boundary (EachMode fixup)</title>
<ellipse fill="none" stroke="black" cx="649.48" cy="-378" rx="176.27" ry="18"/>
<text text-anchor="middle" x="649.48" y="-374.3" font-family="Times,serif" font-size="14.00">[root] meta.count&#45;boundary (EachMode fixup)</text>
</g>
<!-- [root] meta.count&#45;boundary (EachMode fixup)&#45;&gt;[root] aws_autoscaling_group.example (expand) -->
<g id="edge11" class="edge">
<title>[root] meta.count&#45;boundary (EachMode fixup)&#45;&gt;[root] aws_autoscaling_group.example (expand)</title>
<path fill="none" stroke="black" d="M606.35,-360.41C580.87,-350.61 548.38,-338.12 521.24,-327.68"/>
<polygon fill="black" stroke="black" points="522.47,-324.4 511.88,-324.08 519.96,-330.94 522.47,-324.4"/>
</g>
<!-- [root] meta.count&#45;boundary (EachMode fixup)&#45;&gt;[root] output.elb_dns_name -->
<g id="edge12" class="edge">
<title>[root] meta.count&#45;boundary (EachMode fixup)&#45;&gt;[root] output.elb_dns_name</title>
<path fill="none" stroke="black" d="M649.48,-359.7C649.48,-351.98 649.48,-342.71 649.48,-334.11"/>
<polygon fill="black" stroke="black" points="652.98,-334.1 649.48,-324.1 645.98,-334.1 652.98,-334.1"/>
</g>
<!-- [root] provider[&quot;registry.terraform.io/hashicorp/aws&quot;] (close) -->
<g id="node11" class="node">
<title>[root] provider[&quot;registry.terraform.io/hashicorp/aws&quot;] (close)</title>
<ellipse fill="none" stroke="black" cx="227.48" cy="-378" rx="227.46" ry="18"/>
<text text-anchor="middle" x="227.48" y="-374.3" font-family="Times,serif" font-size="14.00">[root] provider[&quot;registry.terraform.io/hashicorp/aws&quot;] (close)</text>
</g>
<!-- [root] provider[&quot;registry.terraform.io/hashicorp/aws&quot;] (close)&#45;&gt;[root] aws_autoscaling_group.example (expand) -->
<g id="edge14" class="edge">
<title>[root] provider[&quot;registry.terraform.io/hashicorp/aws&quot;] (close)&#45;&gt;[root] aws_autoscaling_group.example (expand)</title>
<path fill="none" stroke="black" d="M284.05,-360.5C318.38,-350.49 362.43,-337.64 398.75,-327.05"/>
<polygon fill="black" stroke="black" points="400.16,-330.28 408.78,-324.12 398.2,-323.56 400.16,-330.28"/>
</g>
<!-- [root] root -->
<g id="node12" class="node">
<title>[root] root</title>
<ellipse fill="none" stroke="black" cx="438.48" cy="-450" rx="47.39" ry="18"/>
<text text-anchor="middle" x="438.48" y="-446.3" font-family="Times,serif" font-size="14.00">[root] root</text>
</g>
<!-- [root] root&#45;&gt;[root] meta.count&#45;boundary (EachMode fixup) -->
<g id="edge15" class="edge">
<title>[root] root&#45;&gt;[root] meta.count&#45;boundary (EachMode fixup)</title>
<path fill="none" stroke="black" d="M473.32,-437.44C505.13,-426.89 552.79,-411.08 590.52,-398.56"/>
<polygon fill="black" stroke="black" points="591.99,-401.76 600.38,-395.29 589.78,-395.12 591.99,-401.76"/>
</g>
<!-- [root] root&#45;&gt;[root] provider[&quot;registry.terraform.io/hashicorp/aws&quot;] (close) -->
<g id="edge16" class="edge">
<title>[root] root&#45;&gt;[root] provider[&quot;registry.terraform.io/hashicorp/aws&quot;] (close)</title>
<path fill="none" stroke="black" d="M403.64,-437.44C372.15,-427 325.14,-411.4 287.59,-398.94"/>
<polygon fill="black" stroke="black" points="288.37,-395.51 277.77,-395.68 286.16,-402.16 288.37,-395.51"/>
</g>
</g>
</svg>
